<?xml version="1.0" encoding="UTF-8"?>
<svg height="128px" viewBox="0 0 128 128" width="128px" xmlns="http://www.w3.org/2000/svg" xmlns:xlink="http://www.w3.org/1999/xlink">
    <filter id="a" height="100%" width="100%" x="0%" y="0%">
        <feColorMatrix color-interpolation-filters="sRGB" values="0 0 0 0 1 0 0 0 0 1 0 0 0 0 1 0 0 0 1 0"/>
    </filter>
    <linearGradient id="b" gradientUnits="userSpaceOnUse" x1="108" x2="84" y1="104" y2="80">
        <stop offset="0" stop-color="#f5c211"/>
        <stop offset="1" stop-color="#f9f06b"/>
    </linearGradient>
    <linearGradient id="c" gradientUnits="userSpaceOnUse" x1="20" x2="108" y1="36" y2="104">
        <stop offset="0" stop-color="#62a0ea"/>
        <stop offset="1" stop-color="#33d17a"/>
    </linearGradient>
    <linearGradient id="d" gradientUnits="userSpaceOnUse" x1="84" x2="108" y1="80" y2="104">
        <stop offset="0" stop-color="#26a269"/>
        <stop offset="1" stop-color="#1a5fb4"/>
    </linearGradient>
    <linearGradient id="e" gradientUnits="userSpaceOnUse" x1="12" x2="124" y1="103.99999975" y2="103.99999975">
        <stop offset="0" stop-color="#d5d3cf"/>
        <stop offset="0.0357143" stop-color="#e4e1de"/>
        <stop offset="0.0714286" stop-color="#d5d3cf"/>
        <stop offset="0.928571" stop-color="#d5d3cf"/>
        <stop offset="0.964286" stop-color="#e4e1de"/>
        <stop offset="1" stop-color="#d5d3cf"/>
    </linearGradient>
    <clipPath id="f">
        <rect height="128" width="128"/>
    </clipPath>
    <clipPath id="g">
        <rect height="128" width="128"/>
    </clipPath>
    <mask id="h">
        <g filter="url(#a)">
            <g clip-path="url(#g)" filter="url(#a)">
                <g clip-path="url(#f)">
                    <path d="m 20 11.957031 h 88 c 4.417969 0 8 3.582031 8 8 v 88.042969 c 0 4.417969 -3.582031 8 -8 8 h -88 c -4.417969 0 -8 -3.582031 -8 -8 v -88.042969 c 0 -4.417969 3.582031 -8 8 -8 z m 0 0" fill="#f5f5f3"/>
                    <path d="m 84.027344 104 h 19.976562 c 2.207032 0 3.996094 -1.789062 3.996094 -3.996094 v -20.003906 l -17 7 z m 0 0" fill="url(#b)"/>
                    <path d="m 24 104 h 60.027344 l 23.972656 -23.972656 v -40.027344 c 0 -2.210938 -1.789062 -4 -4 -4 h -80 c -2.210938 0 -4 1.789062 -4 4 v 60 c 0 2.210938 1.789062 4 4 4 z m 0 0" fill="url(#c)"/>
                    <path d="m 84.027344 104 l 23.972656 -23.972656 l -20 -0.023438 c -1.058594 0 -2.078125 0.421875 -2.828125 1.167969 c -0.746094 0.75 -1.167969 1.769531 -1.167969 2.828125 z m 0 0" fill="url(#d)"/>
                    <path d="m 12 104 v 4 c 0 4.433594 3.566406 8 8 8 h 88 c 4.433594 0 8 -3.566406 8 -8 v -4 c 0 4.433594 -3.566406 8 -8 8 h -88 c -4.433594 0 -8 -3.566406 -8 -8 z m 0 0" fill="url(#e)"/>
                    <path d="m 22.855469 20 h 22.289062 c 1.023438 0 1.855469 0.894531 1.855469 2 v 4 c 0 1.105469 -0.832031 2 -1.855469 2 h -22.285156 c -1.027344 0 -1.859375 -0.898438 -1.859375 -2.003906 v -3.996094 c 0 -1.105469 0.832031 -2 1.855469 -2 z m 0 0" fill="#9a9996"/>
                    <path d="m 52.855469 20 h 22.289062 c 1.023438 0 1.855469 0.894531 1.855469 2 v 4 c 0 1.105469 -0.832031 2 -1.855469 2 h -22.285156 c -1.027344 0 -1.859375 -0.898438 -1.859375 -2.003906 v -3.996094 c 0 -1.105469 0.832031 -2 1.855469 -2 z m 0 0" fill="#cbcbc3"/>
                    <path d="m 82.855469 20 h 22.289062 c 1.023438 0 1.855469 0.894531 1.855469 2 v 4 c 0 1.105469 -0.832031 2 -1.855469 2 h -22.285156 c -1.027344 0 -1.859375 -0.898438 -1.859375 -2.003906 v -3.996094 c 0 -1.105469 0.832031 -2 1.855469 -2 z m 0 0" fill="#cbcbc3"/>
                </g>
            </g>
        </g>
    </mask>
    <mask id="i">
        <g filter="url(#a)">
            <rect fill-opacity="0.8" height="184.32" width="184.32" x="-28.16" y="-28.16"/>
        </g>
    </mask>
    <linearGradient id="j" gradientTransform="matrix(0 0.37 -0.98462 0 295.38501 -30.360001)" gradientUnits="userSpaceOnUse" x1="300" x2="428" y1="235" y2="235">
        <stop offset="0" stop-color="#f9f06b"/>
        <stop offset="1" stop-color="#f5c211"/>
    </linearGradient>
    <clipPath id="k">
        <rect height="128" width="128"/>
    </clipPath>
    <clipPath id="l">
        <rect height="128" width="128"/>
    </clipPath>
    <path d="m 20 11.957031 h 88 c 4.417969 0 8 3.582031 8 8 v 88.042969 c 0 4.417969 -3.582031 8 -8 8 h -88 c -4.417969 0 -8 -3.582031 -8 -8 v -88.042969 c 0 -4.417969 3.582031 -8 8 -8 z m 0 0" fill="#f5f5f3"/>
    <path d="m 84.027344 104 h 19.976562 c 2.207032 0 3.996094 -1.789062 3.996094 -3.996094 v -20.003906 l -17 7 z m 0 0" fill="url(#b)"/>
    <path d="m 24 104 h 60.027344 l 23.972656 -23.972656 v -40.027344 c 0 -2.210938 -1.789062 -4 -4 -4 h -80 c -2.210938 0 -4 1.789062 -4 4 v 60 c 0 2.210938 1.789062 4 4 4 z m 0 0" fill="url(#c)"/>
    <path d="m 84.027344 104 l 23.972656 -23.972656 l -20 -0.023438 c -1.058594 0 -2.078125 0.421875 -2.828125 1.167969 c -0.746094 0.75 -1.167969 1.769531 -1.167969 2.828125 z m 0 0" fill="url(#d)"/>
    <path d="m 12 104 v 4 c 0 4.433594 3.566406 8 8 8 h 88 c 4.433594 0 8 -3.566406 8 -8 v -4 c 0 4.433594 -3.566406 8 -8 8 h -88 c -4.433594 0 -8 -3.566406 -8 -8 z m 0 0" fill="url(#e)"/>
    <path d="m 22.855469 20 h 22.289062 c 1.023438 0 1.855469 0.894531 1.855469 2 v 4 c 0 1.105469 -0.832031 2 -1.855469 2 h -22.285156 c -1.027344 0 -1.859375 -0.898438 -1.859375 -2.003906 v -3.996094 c 0 -1.105469 0.832031 -2 1.855469 -2 z m 0 0" fill="#9a9996"/>
    <path d="m 52.855469 20 h 22.289062 c 1.023438 0 1.855469 0.894531 1.855469 2 v 4 c 0 1.105469 -0.832031 2 -1.855469 2 h -22.285156 c -1.027344 0 -1.859375 -0.898438 -1.859375 -2.003906 v -3.996094 c 0 -1.105469 0.832031 -2 1.855469 -2 z m 0 0" fill="#cbcbc3"/>
    <path d="m 82.855469 20 h 22.289062 c 1.023438 0 1.855469 0.894531 1.855469 2 v 4 c 0 1.105469 -0.832031 2 -1.855469 2 h -22.285156 c -1.027344 0 -1.859375 -0.898438 -1.859375 -2.003906 v -3.996094 c 0 -1.105469 0.832031 -2 1.855469 -2 z m 0 0" fill="#cbcbc3"/>
    <g mask="url(#h)">
        <g clip-path="url(#l)">
            <g mask="url(#i)">
                <g clip-path="url(#k)">
                    <path d="m 128 80.640625 v 47.359375 h -128 v -47.359375 z m 0 0" fill="url(#j)"/>
                    <path d="m 13.308594 80.640625 l 47.355468 47.359375 h 21.214844 l -47.359375 -47.359375 z m 42.421875 0 l 47.363281 47.359375 h 21.214844 l -47.363282 -47.359375 z m 42.429687 0 l 29.839844 29.839844 v -21.210938 l -8.628906 -8.628906 z m -98.160156 7.90625 v 21.214844 l 18.238281 18.238281 h 21.214844 z m 0 0"/>
                </g>
            </g>
        </g>
    </g>
</svg>
