<?xml version="1.0" encoding="UTF-8"?>
<svg height="128px" viewBox="0 0 128 128" width="128px" xmlns="http://www.w3.org/2000/svg" xmlns:xlink="http://www.w3.org/1999/xlink">
    <linearGradient id="a" gradientUnits="userSpaceOnUse" x1="108" x2="84" y1="104" y2="80">
        <stop offset="0" stop-color="#f5c211"/>
        <stop offset="1" stop-color="#f9f06b"/>
    </linearGradient>
    <radialGradient id="b" cx="131.914749" cy="55.927143" gradientTransform="matrix(0.232034 -0.541475 -0.368794 -0.0298398 4.27775 137.001465)" gradientUnits="userSpaceOnUse" r="160">
        <stop offset="0" stop-color="#ed333b"/>
        <stop offset="1" stop-color="#a347ba"/>
    </radialGradient>
    <linearGradient id="c" gradientUnits="userSpaceOnUse" x1="20" x2="108" y1="40" y2="104">
        <stop offset="0" stop-color="#62a0ea"/>
        <stop offset="1" stop-color="#33d17a"/>
    </linearGradient>
    <linearGradient id="d" gradientUnits="userSpaceOnUse" x1="84" x2="108" y1="80" y2="104">
        <stop offset="0" stop-color="#26a269"/>
        <stop offset="1" stop-color="#1a5fb4"/>
    </linearGradient>
    <linearGradient id="e" gradientUnits="userSpaceOnUse" x1="12" x2="124" y1="103.99999975" y2="103.99999975">
        <stop offset="0" stop-color="#d5d3cf"/>
        <stop offset="0.0357143" stop-color="#e4e1de"/>
        <stop offset="0.0714286" stop-color="#d5d3cf"/>
        <stop offset="0.928571" stop-color="#d5d3cf"/>
        <stop offset="0.964286" stop-color="#e4e1de"/>
        <stop offset="1" stop-color="#d5d3cf"/>
    </linearGradient>
    <path d="m 20 11.957031 h 88 c 4.417969 0 8 3.582031 8 8 v 88.042969 c 0 4.417969 -3.582031 8 -8 8 h -88 c -4.417969 0 -8 -3.582031 -8 -8 v -88.042969 c 0 -4.417969 3.582031 -8 8 -8 z m 0 0" fill="#f5f5f3"/>
    <path d="m 20 104 h 88 v -64 h -88 z m 0 0" fill="url(#a)"/>
    <path d="m 20 104 h 63.949219 l 24.050781 -24.003906 v -39.996094 h -88 z m 0 0" fill="url(#b)"/>
    <path d="m 30 22 h 22 v 3.941406 v 0.117188 v 3.941406 h -22 s 0 -1.765625 0 -3.941406 v -0.117188 c 0 -2.175781 0 -3.941406 0 -3.941406 z m 0 0" fill="#deddda"/>
    <path d="m 33 21 h 62 c 2.210938 0 4 1.789063 4 4 v 2 c 0 2.210938 -1.789062 4 -4 4 h -62 c -2.210937 0 -4 -1.789062 -4 -4 v -2 c 0 -2.210937 1.789063 -4 4 -4 z m 0 0" fill="none" stroke="#c0bfbc" stroke-width="2"/>
    <path d="m 20 104 h 64.027344 l 23.972656 -23.972656 v -40.027344 h -88 z m 0 0" fill="url(#c)"/>
    <path d="m 84 104 l 24 -24.003906 l -24 0.003906 z m 0 0" fill="url(#b)"/>
    <path d="m 84.027344 104 l 23.972656 -23.972656 l -24 -0.027344 z m 0 0" fill="url(#d)"/>
    <path d="m 74 22 h 2 v 3.949219 v 0.101562 v 3.949219 h -2 s 0 -1.765625 0 -3.949219 v -0.101562 c 0 -2.183594 0 -3.949219 0 -3.949219 z m 0 0" fill="#c0bfbc"/>
    <path d="m 52 22 h 2 v 3.949219 v 0.101562 v 3.949219 h -2 s 0 -1.765625 0 -3.949219 v -0.101562 c 0 -2.183594 0 -3.949219 0 -3.949219 z m 0 0" fill="#c0bfbc"/>
    <path d="m 12 104 v 4 c 0 4.433594 3.566406 8 8 8 h 88 c 4.433594 0 8 -3.566406 8 -8 v -4 c 0 4.433594 -3.566406 8 -8 8 h -88 c -4.433594 0 -8 -3.566406 -8 -8 z m 0 0" fill="url(#e)"/>
</svg>
