<?xml version="1.0" encoding="UTF-8"?>
<svg height="16px" viewBox="0 0 16 16" width="16px" xmlns="http://www.w3.org/2000/svg">
    <g fill="#241f31">
        <path d="m 2 4 h 12 v 1 h -12 z m 0 0"/>
        <path d="m 2 1 h 1 v 3 h -1 z m 0 0"/>
        <path d="m 13 1 h 1 v 3 h -1 z m 0 0"/>
        <path d="m 7 2 h 2 v 2 h -2 z m 0 0"/>
        <path d="m 1 1 h 1 v 14 h -1 z m 0 0"/>
        <path d="m 14 1 h 1 v 14 h -1 z m 0 0"/>
        <path d="m 2 1 h 12 v 1 h -12 z m 0 0"/>
        <path d="m 2 14 h 12 v 1 h -12 z m 0 0"/>
        <path d="m 10 14 l 4 -4 h -4 z m 0 0"/>
    </g>
</svg>
