<?xml version="1.0" encoding="UTF-8"?>
<svg height="16px" viewBox="0 0 16 16" width="16px" xmlns="http://www.w3.org/2000/svg">
    <g fill="#241f31">
        <path d="m 10 14 l 4 -4 h -3.492188 c -0.257812 0 -0.507812 0.25 -0.507812 0.5"/>
        <path d="m 2.5 0 c -1.25 0 -2.5 1.25 -2.5 2.5 v 11 c 0 1.25 1.25 2.5 2.5 2.5 h 11 c 1.25 0 2.5 -1.25 2.5 -2.5 v -11 c 0 -1.25 -1.25 -2.5 -2.5 -2.5 z m 11.5 2 v 12 h -12 v -12 z m 0 0"/>
        <path d="m 2 2.5 v -0.5 h 12 v 0.5 c 0 -0.25 -0.25 -0.5 -0.5 -0.5 h -2.5 c -0.25 0 -0.5 0.25 -0.5 0.5 h -0.75 c 0 -0.25 -0.25 -0.5 -0.5 -0.5 h -2.5 c -0.25 0 -0.5 0.25 -0.5 0.5 h -0.75 c 0 -0.25 -0.25 -0.5 -0.5 -0.5 h -2.5 c -0.25 0 -0.5 0.25 -0.5 0.5 z m 0 0"/>
        <path d="m 2 3 h 12 v 1 h -12 z m 0 0"/>
        <path d="m 2 4.507812 v -0.507812 h 0.5 c -0.25 0 -0.5 0.25 -0.5 0.507812 z m 0 0"/>
        <path d="m 14 4.507812 v -0.507812 h -0.5 c 0.25 0 0.5 0.25 0.5 0.507812 z m 0 0"/>
        <path d="m 14 13.496094 v 0.507812 h -0.5 c 0.25 0 0.5 -0.25 0.5 -0.507812 z m 0 0"/>
        <path d="m 2 13.496094 v 0.507812 h 0.5 c -0.25 0 -0.5 -0.25 -0.5 -0.507812 z m 0 0"/>
        <path d="m 2 2.5 v 0.5 h 12 v -0.5 c 0 0.25 -0.25 0.5 -0.5 0.5 h -2.5 c -0.25 0 -0.5 -0.25 -0.5 -0.5 h -0.75 c 0 0.25 -0.25 0.5 -0.5 0.5 h -2.5 c -0.25 0 -0.5 -0.25 -0.5 -0.5 h -0.75 c 0 0.25 -0.25 0.5 -0.5 0.5 h -2.5 c -0.25 0 -0.5 -0.25 -0.5 -0.5 z m 0 0"/>
    </g>
</svg>
