<?xml version="1.0" encoding="UTF-8" standalone="no"?>
<svg
   xmlns:dc="http://purl.org/dc/elements/1.1/"
   xmlns:cc="http://creativecommons.org/ns#"
   xmlns:rdf="http://www.w3.org/1999/02/22-rdf-syntax-ns#"
   xmlns:svg="http://www.w3.org/2000/svg"
   xmlns="http://www.w3.org/2000/svg"
   xmlns:sodipodi="http://sodipodi.sourceforge.net/DTD/sodipodi-0.dtd"
   xmlns:inkscape="http://www.inkscape.org/namespaces/inkscape"
   height="128"
   viewBox="0 0 128 128"
   width="128"
   version="1.1"
   id="svg1416"
   sodipodi:docname="org.gnome.gitlab.YaLTeR.Identity-symbolic-big.svg"
   inkscape:version="1.0.1 (3bc2e813f5, 2020-09-07)">
  <metadata
     id="metadata1422">
    <rdf:RDF>
      <cc:Work
         rdf:about="">
        <dc:format>image/svg+xml</dc:format>
        <dc:type
           rdf:resource="http://purl.org/dc/dcmitype/StillImage" />
        <dc:title></dc:title>
      </cc:Work>
    </rdf:RDF>
  </metadata>
  <defs
     id="defs1420" />
  <sodipodi:namedview
     pagecolor="#ffffff"
     bordercolor="#666666"
     borderopacity="1"
     objecttolerance="10"
     gridtolerance="10"
     guidetolerance="10"
     inkscape:pageopacity="0"
     inkscape:pageshadow="2"
     inkscape:window-width="1635"
     inkscape:window-height="924"
     id="namedview1418"
     showgrid="false"
     units="px"
     inkscape:zoom="2.784233"
     inkscape:cx="44.890356"
     inkscape:cy="68.785249"
     inkscape:window-x="26"
     inkscape:window-y="23"
     inkscape:window-maximized="0"
     inkscape:current-layer="svg1416" />
  <g
     fill="#241f31"
     id="g1406"
     transform="scale(8)"
     style="fill:#040000;fill-opacity:1">
    <path
       d="M 2,3 H 14 V 4 H 2 Z m 0,0"
       id="path1400"
       style="fill:#040000;fill-opacity:1" />
    <path
       d="M 6,2 H 7 V 4 H 6 Z m 0,0"
       id="path1402"
       style="fill:#040000;fill-opacity:1" />
    <path
       d="m 10,14 4,-4 h -4 z m 0,0"
       id="path1404"
       style="fill:#040000;fill-opacity:1" />
  </g>
  <path
     d="m 16,12 h 96 c 2.21875,0 4,1.781248 4,4 v 96 c 0,2.21875 -1.78125,4 -4,4 H 16 c -2.218752,0 -4,-1.78125 -4,-4 V 16 c 0,-2.218752 1.781248,-4 4,-4 z m 0,0"
     fill="none"
     stroke="#241f31"
     stroke-linejoin="round"
     id="path1408"
     style="stroke-width:8;stroke:#000000;stroke-opacity:1" />
  <path
     d="m 72,16 h 8 v 16 h -8 z m 0,0"
     fill="#241f31"
     id="path1410"
     style="stroke-width:8;fill:#040000;fill-opacity:1" />
  <path
     d="M 16,16 H 32 V 32 H 16 Z m 0,0"
     fill="#241f31"
     id="path1412"
     style="stroke-width:8;fill:#040000;fill-opacity:1" />
  <path
     d="m 96,16 h 16 V 32 H 96 Z m 0,0"
     fill="#241f31"
     id="path1414"
     style="stroke-width:8;fill:#040000;fill-opacity:1" />
</svg>
